<?xml version="1.0" standalone="no"?>
<svg xmlns:xlink="http://www.w3.org/1999/xlink" id="wave" style="transform:rotate(180deg); transition: 0.3s" viewBox="0 0 1440 490" version="1.1" xmlns="http://www.w3.org/2000/svg"><defs><linearGradient id="sw-gradient-0" x1="0" x2="0" y1="1" y2="0"><stop stop-color="rgba(255, 179, 11, 1)" offset="0%"/><stop stop-color="rgba(255, 179, 11, 1)" offset="100%"/></linearGradient></defs><path style="transform:translate(0, 0px); opacity:1" fill="url(#sw-gradient-0)" d="M0,0L26.7,24.5C53.3,49,107,98,160,163.3C213.3,229,267,310,320,351.2C373.3,392,427,392,480,375.7C533.3,359,587,327,640,302.2C693.3,278,747,261,800,261.3C853.3,261,907,278,960,236.8C1013.3,196,1067,98,1120,106.2C1173.3,114,1227,229,1280,261.3C1333.3,294,1387,245,1440,196C1493.3,147,1547,98,1600,114.3C1653.3,131,1707,212,1760,204.2C1813.3,196,1867,98,1920,49C1973.3,0,2027,0,2080,40.8C2133.3,82,2187,163,2240,228.7C2293.3,294,2347,343,2400,343C2453.3,343,2507,294,2560,253.2C2613.3,212,2667,180,2720,163.3C2773.3,147,2827,147,2880,187.8C2933.3,229,2987,310,3040,294C3093.3,278,3147,163,3200,98C3253.3,33,3307,16,3360,24.5C3413.3,33,3467,65,3520,98C3573.3,131,3627,163,3680,155.2C3733.3,147,3787,98,3813,73.5L3840,49L3840,490L3813.3,490C3786.7,490,3733,490,3680,490C3626.7,490,3573,490,3520,490C3466.7,490,3413,490,3360,490C3306.7,490,3253,490,3200,490C3146.7,490,3093,490,3040,490C2986.7,490,2933,490,2880,490C2826.7,490,2773,490,2720,490C2666.7,490,2613,490,2560,490C2506.7,490,2453,490,2400,490C2346.7,490,2293,490,2240,490C2186.7,490,2133,490,2080,490C2026.7,490,1973,490,1920,490C1866.7,490,1813,490,1760,490C1706.7,490,1653,490,1600,490C1546.7,490,1493,490,1440,490C1386.7,490,1333,490,1280,490C1226.7,490,1173,490,1120,490C1066.7,490,1013,490,960,490C906.7,490,853,490,800,490C746.7,490,693,490,640,490C586.7,490,533,490,480,490C426.7,490,373,490,320,490C266.7,490,213,490,160,490C106.7,490,53,490,27,490L0,490Z"/></svg>