<?xml version="1.0" standalone="no"?>
<svg xmlns:xlink="http://www.w3.org/1999/xlink" id="wave" style="transform:rotate(180deg); transition: 0.3s" viewBox="0 0 1440 450" version="1.1" xmlns="http://www.w3.org/2000/svg"><defs><linearGradient id="sw-gradient-0" x1="0" x2="0" y1="1" y2="0"><stop stop-color="rgba(255, 179, 11, 1)" offset="0%"/><stop stop-color="rgba(255, 179, 11, 1)" offset="100%"/></linearGradient></defs><path style="transform:translate(0, 0px); opacity:1" fill="url(#sw-gradient-0)" d="M0,0L21.8,52.5C43.6,105,87,210,131,210C174.5,210,218,105,262,52.5C305.5,0,349,0,393,7.5C436.4,15,480,30,524,90C567.3,150,611,255,655,307.5C698.2,360,742,360,785,315C829.1,270,873,180,916,150C960,120,1004,150,1047,157.5C1090.9,165,1135,150,1178,150C1221.8,150,1265,165,1309,195C1352.7,225,1396,270,1440,292.5C1483.6,315,1527,315,1571,277.5C1614.5,240,1658,165,1702,120C1745.5,75,1789,60,1833,67.5C1876.4,75,1920,105,1964,127.5C2007.3,150,2051,165,2095,210C2138.2,255,2182,330,2225,367.5C2269.1,405,2313,405,2356,337.5C2400,270,2444,135,2487,97.5C2530.9,60,2575,120,2618,120C2661.8,120,2705,60,2749,52.5C2792.7,45,2836,90,2880,112.5C2923.6,135,2967,135,3011,157.5C3054.5,180,3098,225,3120,247.5L3141.8,270L3141.8,450L3120,450C3098.2,450,3055,450,3011,450C2967.3,450,2924,450,2880,450C2836.4,450,2793,450,2749,450C2705.5,450,2662,450,2618,450C2574.5,450,2531,450,2487,450C2443.6,450,2400,450,2356,450C2312.7,450,2269,450,2225,450C2181.8,450,2138,450,2095,450C2050.9,450,2007,450,1964,450C1920,450,1876,450,1833,450C1789.1,450,1745,450,1702,450C1658.2,450,1615,450,1571,450C1527.3,450,1484,450,1440,450C1396.4,450,1353,450,1309,450C1265.5,450,1222,450,1178,450C1134.5,450,1091,450,1047,450C1003.6,450,960,450,916,450C872.7,450,829,450,785,450C741.8,450,698,450,655,450C610.9,450,567,450,524,450C480,450,436,450,393,450C349.1,450,305,450,262,450C218.2,450,175,450,131,450C87.3,450,44,450,22,450L0,450Z"/></svg>